<svg xmlns="http://www.w3.org/2000/svg" viewBox="0 0 1024 1024" width="1024" height="1024" fill="none">
  <title>LaterMD</title>
  <desc>圆角方形 + 青蓝到深蓝渐变，白色一笔画连写符号，同时读作 A / I / M / D，右上角双四角星。</desc>
  <defs>
    <clipPath id="lmSquare">
      <rect x="0" y="0" width="1024" height="1024" rx="228" ry="228"/>
    </clipPath>
    <linearGradient id="lmBg" x1="0" y1="0" x2="1" y2="1">
      <stop offset="0" stop-color="#199CFD"/>
      <stop offset="1" stop-color="#0C28CA"/>
    </linearGradient>
    <linearGradient id="lmGlyph" gradientUnits="userSpaceOnUse" x1="150" y1="198" x2="833" y2="820">
      <stop offset="0" stop-color="#FFFFFF"/>
      <stop offset="1" stop-color="#ECF4FF"/>
    </linearGradient>
    <path id="lmSparkle"
      d="M 0 -100 C 35 -35, 35 -35, 100 0 C 35 35, 35 35, 0 100
         C -35 35, -35 35, -100 0 C -35 -35, -35 -35, 0 -100 Z"/>
  </defs>

  

  <g stroke="#FFFFFF" stroke-width="76" stroke-linecap="round" stroke-linejoin="round">
    <path d="M 150 820 L 378.7 229.7 Q 391 198 402.0 230.2 L 533 622 L 664.0 229.2 Q 675 197 675 231 L 675 820"/>
    <path d="M 292 460 L 468 460"/>
    <path d="M 675 231 A 160 294.5 0 0 1 675 820"/>
  </g>

  
</svg>
